<!DOCTYPE svg PUBLIC "-//W3C//DTD SVG 1.1//EN" "http://www.w3.org/Graphics/SVG/1.1/DTD/svg11.dtd">

<!-- Uploaded to: SVG Repo, www.svgrepo.com, Transformed by: SVG Repo Mixer Tools -->
<svg width="800px" height="800px" viewBox="-2.4 -2.4 28.80 28.80" fill="none" xmlns="http://www.w3.org/2000/svg" transform="rotate(0)matrix(1, 0, 0, 1, 0, 0)" stroke="#080808">

<g id="SVGRepo_bgCarrier" stroke-width="0"/>

<g id="SVGRepo_tracerCarrier" stroke-linecap="round" stroke-linejoin="round" stroke="#1b1818" stroke-width="0.24000000000000005"/>

<g id="SVGRepo_iconCarrier">

<path d="M18.6 3H5.4A2.4 2.4 0 0 0 3 5.4v13.2A2.4 2.4 0 0 0 5.4 21h13.2a2.4 2.4 0 0 0 2.4-2.4V5.4A2.4 2.4 0 0 0 18.6 3Z" fill="#121212" fill-opacity=".16" stroke="#121212" stroke-width="0.384" stroke-miterlimit="10"/>

<path d="M12 13a1 1 0 1 0 0-2 1 1 0 0 0 0 2ZM12 18a1 1 0 1 0 0-2 1 1 0 0 0 0 2ZM12 8a1 1 0 1 0 0-2 1 1 0 0 0 0 2Z" fill="#121212" stroke="#121212" stroke-width="0.384" stroke-miterlimit="10"/>

</g>

</svg>

